<?xml version="1.0" standalone="no"?><!DOCTYPE svg PUBLIC "-//W3C//DTD SVG 1.1//EN" "http://www.w3.org/Graphics/SVG/1.1/DTD/svg11.dtd"><svg t="1609039520631" class="icon" viewBox="0 0 1024 1024" version="1.1" xmlns="http://www.w3.org/2000/svg" p-id="2021" xmlns:xlink="http://www.w3.org/1999/xlink" width="128" height="128"><defs><style type="text/css"></style></defs><path d="M512 899.5c-213.668 0-387.5-173.832-387.5-387.5S298.332 124.5 512 124.5 899.5 298.332 899.5 512 725.668 899.5 512 899.5z" fill="#13227a" p-id="2022" data-spm-anchor-id="a313x.7781069.0.i7" class="selected"></path><path d="M512 137c-206.776 0-375 168.224-375 375s168.224 375 375 375 375-168.224 375-375-168.224-375-375-375m0-25c220.914 0 400 179.086 400 400S732.914 912 512 912 112 732.914 112 512s179.086-400 400-400z" fill="#4472C4" p-id="2023"></path><path d="M658 598.857c0-13.714-4.571-28.571-13.143-43.429-9.143-14.857-26.286-29.143-50.857-42.286l-24-10.286-30.857-10.285L558 478.857c5.143-4.571 10.286-8.571 15.429-12.571 4.571-4 9.714-8 14.286-12.571 4.571-3.429 10.286-8 16-12.571 15.429-12.571 25.714-22.286 30.857-29.714 4.571-7.429 7.429-14.286 7.429-20.571a24.669 24.669 0 0 0-5.143-14.857 41.951 41.951 0 0 0-15.429-9.714c0-2.286 0.571-4.571 0.571-6.286v-3.429c0-5.714-3.429-10.286-9.714-14.857-3.429-1.714-7.429-3.429-12.571-5.714l-8-2.286a50.287 50.287 0 0 1-8.571-2.857c-5.714-2.286-12.571-4-19.429-6.286-7.429-2.286-14.857-4-21.714-6.286-8-1.714-14.857-3.429-21.714-4.571a120.707 120.707 0 0 0-17.714-1.714c-24 0-43.429 3.429-58.857 10.286-16 6.857-29.143 16-38.857 26.286a88.816 88.816 0 0 0-20.571 34.286 100.205 100.205 0 0 0-6.286 34.857c0 17.143 5.714 33.143 18.286 47.429 12 14.857 29.143 28 50.857 39.429-10.288 6.854-18.859 12.568-26.288 17.711A194.023 194.023 0 0 0 402 538.857c-12.571 12.571-21.714 24-27.429 34.857-5.714 11.429-8.571 22.857-8.571 33.715a91.678 91.678 0 0 0 8.571 38.857A87.929 87.929 0 0 0 401.429 680c11.429 9.714 26.857 17.143 45.143 22.857 18.286 6.286 40 9.143 65.714 9.143 24 0 45.714-2.286 64-8s33.143-13.143 45.714-23.429a99.361 99.361 0 0 0 26.857-36A116.468 116.468 0 0 0 658 598.857z m-64-216.571a97.644 97.644 0 0 1-6.286 9.714L582 398.857l-20.571 20.571c-7.429 7.429-14.857 14.857-22.857 21.714-8 7.429-16.571 14.286-24.571 20.571a241.931 241.931 0 0 1-24 17.143c-18.287-6.285-33.715-14.856-45.144-25.142S427.714 430.857 427.714 416a74.754 74.754 0 0 1 4-25.143 52.181 52.181 0 0 1 12-21.143 59.943 59.943 0 0 1 21.714-14.286 86.626 86.626 0 0 1 32-5.714c12.571 0 25.143 2.286 37.714 5.714a275.6 275.6 0 0 1 32 12c4.571 2.286 9.143 5.143 13.143 7.429A74 74 0 0 0 594 382.286z m18.286 224a55.088 55.088 0 0 1-8.571 30.286 77.176 77.176 0 0 1-22.286 22.857c-9.143 6.857-20 11.429-31.429 14.857A113.8 113.8 0 0 1 513.429 680c-17.714 0-33.143-1.714-45.714-5.714s-23.429-9.143-31.429-16c-8.572-6.857-14.857-14.286-18.857-22.857a56.206 56.206 0 0 1-6.286-26.857c0-6.286 2.286-14.286 7.429-24.571 4.571-9.143 14.286-20 29.143-32 6.286-5.143 13.143-10.286 20-16 6.857-4.571 14.857-9.714 24-14.857 79.999 23.427 120.571 51.999 120.571 85.142z" fill="#FFFFFF" p-id="2024"></path></svg>